<?xml version="1.0" standalone="no"?><!DOCTYPE svg PUBLIC "-//W3C//DTD SVG 1.1//EN" "http://www.w3.org/Graphics/SVG/1.1/DTD/svg11.dtd"><svg t="1638767995328" class="icon" viewBox="0 0 1024 1024" version="1.1" xmlns="http://www.w3.org/2000/svg" p-id="1822" xmlns:xlink="http://www.w3.org/1999/xlink" width="64" height="64"><defs><style type="text/css"></style></defs><path d="M361.4 100.9c0-20.6 16.7-37.3 37.3-37.3h224c20.6 0 37.3 16.7 37.3 37.3 0 20.6-16.7 37.3-37.3 37.3H548v76.5c75.1 7.4 143.6 37.1 199 82.4l36-36c14.6-14.6 38.2-14.6 52.8 0 14.6 14.6 14.6 38.2 0 52.8l-36 36c52.7 64.3 84.3 146.6 84.3 236.2 0 206.2-167.1 373.3-373.3 373.3-206.2 0-373.3-167.1-373.3-373.3 0-193.6 147.3-352.7 336-371.4v-76.5h-74.7c-20.7 0.1-37.4-16.6-37.4-37.3z m149.3 186.7c-164.9 0-298.6 133.7-298.6 298.6 0 164.9 133.7 298.6 298.6 298.6 164.9 0 298.6-133.7 298.6-298.6 0-164.9-133.7-298.6-298.6-298.6z m0 149.3c20.6 0 37.3 16.7 37.3 37.3v112h74.7c20.6 0 37.3 16.7 37.3 37.3 0 20.6-16.7 37.3-37.3 37.3h-112c-20.6 0-37.3-16.7-37.3-37.3V474.2c0-20.6 16.7-37.3 37.3-37.3z" p-id="1823" fill="#ffffff"></path></svg>